<svg width="31" height="30" viewBox="0 0 31 30" fill="none" xmlns="http://www.w3.org/2000/svg">
<path d="M15.9105 0.0600586C7.67696 0.0600586 0.94043 6.80863 0.94043 15.1203C0.94043 22.6354 6.41948 28.873 13.5752 30.0002V19.4791H9.77277V15.1203H13.5752V11.7987C13.5752 8.02607 15.8057 5.9519 19.2339 5.9519C20.8656 5.9519 22.5722 6.23748 22.5722 6.23748V9.94994H20.686C18.8297 9.94994 18.2458 11.1073 18.2458 12.2947V15.1203H22.4075L21.7339 19.4791H18.2458V30.0002C21.7734 29.4409 24.9857 27.6338 27.3026 24.9051C29.6196 22.1764 30.8886 18.706 30.8806 15.1203C30.8806 6.80863 24.144 0.0600586 15.9105 0.0600586Z" fill="#CACACA"/>
</svg>
