<svg width="30" height="30" viewBox="0 0 30 30" fill="none" xmlns="http://www.w3.org/2000/svg">
<g clip-path="url(#clip0)">
<path d="M12.1052 14.9708C12.1052 16.5534 13.388 17.8362 14.9706 17.8362C16.5531 17.8362 17.8359 16.5534 17.8359 14.9708C17.8359 13.3883 16.5531 12.1055 14.9706 12.1055C13.388 12.1055 12.1052 13.3883 12.1052 14.9708Z" fill="#CACACA"/>
<path d="M8.2691 9.90082C8.40684 9.52757 8.62659 9.18973 8.91212 8.91242C9.18943 8.62689 9.52704 8.40715 9.90052 8.2694C10.2034 8.15177 10.6584 8.01174 11.4965 7.97359C12.4031 7.93225 12.675 7.92334 14.9702 7.92334C17.2656 7.92334 17.5375 7.93202 18.4439 7.97337C19.282 8.01174 19.7372 8.15177 20.0399 8.2694C20.4133 8.40715 20.7512 8.62689 21.0283 8.91242C21.3138 9.18973 21.5335 9.52734 21.6715 9.90082C21.7892 10.2037 21.9292 10.659 21.9673 11.4971C22.0087 12.4034 22.0176 12.6753 22.0176 14.9707C22.0176 17.2659 22.0087 17.5378 21.9673 18.4444C21.9292 19.2825 21.7892 19.7375 21.6715 20.0404C21.5335 20.4139 21.314 20.7515 21.0285 21.0288C20.7512 21.3143 20.4136 21.5341 20.0401 21.6718C19.7372 21.7897 19.282 21.9297 18.4439 21.9679C17.5375 22.0092 17.2659 22.0179 14.9704 22.0179C12.6747 22.0179 12.4029 22.0092 11.4968 21.9679C10.6587 21.9297 10.2034 21.7897 9.90052 21.6718C9.15083 21.3826 8.55829 20.7901 8.2691 20.0404C8.15146 19.7375 8.01144 19.2825 7.97306 18.4444C7.93172 17.5378 7.92304 17.2659 7.92304 14.9707C7.92304 12.6753 7.93172 12.4034 7.97306 11.4971C8.01121 10.659 8.15124 10.2037 8.2691 9.90082ZM14.9702 19.3846C17.4082 19.3846 19.3845 17.4085 19.3845 14.9705C19.3845 12.5325 17.4082 10.5564 14.9702 10.5564C12.5324 10.5564 10.5561 12.5325 10.5561 14.9705C10.5561 17.4085 12.5324 19.3846 14.9702 19.3846ZM10.3816 11.4135C10.9513 11.4135 11.4132 10.9516 11.4132 10.3819C11.4132 9.81219 10.9513 9.35031 10.3816 9.35031C9.81189 9.35031 9.35001 9.81219 9.35001 10.3819C9.35024 10.9516 9.81189 11.4135 10.3816 11.4135Z" fill="#CACACA"/>
<path d="M14.9703 0.000488281C23.2368 0.000488281 29.9404 6.70409 29.9404 14.9706C29.9404 23.2371 23.2368 29.9407 14.9703 29.9407C6.70385 29.9407 0.000242233 23.2371 0.000242233 14.9706C0.000242233 6.70409 6.70385 0.000488281 14.9703 0.000488281ZM6.42608 18.5146C6.46765 19.4297 6.61316 20.0544 6.8256 20.6013C7.27217 21.756 8.18496 22.6687 9.33965 23.1153C9.88627 23.3278 10.5112 23.473 11.4261 23.5148C12.3428 23.5566 12.6356 23.5667 14.9701 23.5667C17.3048 23.5667 17.5975 23.5566 18.5144 23.5148C19.4292 23.473 20.0542 23.3278 20.6008 23.1153C21.1746 22.8995 21.694 22.5612 22.1235 22.1237C22.5607 21.6945 22.899 21.1748 23.1148 20.6013C23.3273 20.0546 23.4728 19.4297 23.5144 18.5148C23.5566 17.5979 23.5664 17.3051 23.5664 14.9706C23.5664 12.6361 23.5566 12.3432 23.5146 11.4266C23.473 10.5115 23.3277 9.88674 23.1153 9.33989C22.8994 8.76632 22.5609 8.24665 22.1235 7.81744C21.6943 7.38 21.1746 7.0417 20.601 6.82584C20.0542 6.61341 19.4294 6.46813 18.5144 6.42633C17.5977 6.38452 17.3048 6.37447 14.9703 6.37447C12.6358 6.37447 12.343 6.38452 11.4263 6.42655C10.5112 6.46813 9.8865 6.61341 9.33965 6.82561C8.76607 7.04148 8.2464 7.38 7.81696 7.81744C7.37976 8.24688 7.04123 8.76632 6.8256 9.33989C6.61293 9.88674 6.46765 10.5115 6.42585 11.4266C6.38405 12.3432 6.37423 12.6361 6.37423 14.9706C6.37423 17.3051 6.38405 17.5979 6.42608 18.5146Z" fill="#CACACA"/>
</g>
<defs>
<clipPath id="clip0">
<rect width="29.9402" height="29.9402" fill="white" transform="matrix(-1 0 0 1 29.9404 0.000488281)"/>
</clipPath>
</defs>
</svg>
