<svg width="112" height="18" viewBox="0 0 112 18" fill="none" xmlns="http://www.w3.org/2000/svg">
<path d="M25.2119 14.658V2.34527H28.466V6.91856H33.2152V2.34527H36.4692V14.658H33.2152V9.90879H28.466V14.658H25.2119Z" fill="white"/>
<path d="M38.3958 3.04886C38.3958 2.62671 38.5542 2.27491 38.8708 1.99348C39.1874 1.70032 39.5861 1.55374 40.0669 1.55374C40.5476 1.55374 40.9463 1.70032 41.2629 1.99348C41.5796 2.27491 41.7379 2.62671 41.7379 3.04886C41.7379 3.45928 41.5796 3.81107 41.2629 4.10423C40.9463 4.39739 40.5476 4.54397 40.0669 4.54397C39.5861 4.54397 39.1874 4.39739 38.8708 4.10423C38.5542 3.81107 38.3958 3.45928 38.3958 3.04886ZM38.5717 14.658V5.5114H41.562V14.658H38.5717Z" fill="white"/>
<path d="M44.2404 13.2684C43.4547 12.4006 43.0619 11.2808 43.0619 9.90879C43.0619 8.5368 43.4547 7.41693 44.2404 6.54918C45.0261 5.68143 45.9818 5.24755 47.1075 5.24755C47.9166 5.24755 48.6143 5.48208 49.2007 5.95114C49.4704 6.16221 49.6814 6.39674 49.8339 6.65472H50.0098V5.5114H53V18H44.2932V15.6254H50.0098V13.2508H49.8339C49.6697 13.5088 49.4586 13.7316 49.2007 13.9192C48.6261 14.3531 47.9283 14.57 47.1075 14.57C45.9818 14.57 45.0261 14.1362 44.2404 13.2684ZM46.6678 8.36091C46.316 8.73615 46.1401 9.25211 46.1401 9.90879C46.1401 10.5655 46.316 11.0814 46.6678 11.4567C47.0196 11.8319 47.4886 12.0195 48.0749 12.0195C48.6612 12.0195 49.1303 11.8319 49.4821 11.4567C49.8339 11.0814 50.0098 10.5655 50.0098 9.90879C50.0098 9.25211 49.8339 8.73615 49.4821 8.36091C49.1303 7.98566 48.6612 7.79804 48.0749 7.79804C47.4886 7.79804 47.0196 7.98566 46.6678 8.36091Z" fill="white"/>
<path d="M54.7507 14.658V2.34527H57.7409V6.74267H57.9168C58.081 6.46123 58.2921 6.21498 58.5501 6.0039C59.1481 5.49967 59.8458 5.24755 60.6432 5.24755C61.7221 5.24755 62.5605 5.57589 63.1585 6.23257C63.7683 6.87752 64.0732 7.80977 64.0732 9.02931V14.658H61.083V9.46905C61.083 8.94136 60.9422 8.53094 60.6608 8.23778C60.3794 7.94462 59.9924 7.79804 59.4999 7.79804C58.9957 7.79804 58.5735 7.98566 58.2335 8.36091C57.9051 8.72443 57.7409 9.21107 57.7409 9.82084V14.658H54.7507Z" fill="white"/>
<path d="M70.6741 18V5.5114H73.6643V6.74267H73.8402C74.0044 6.47296 74.2272 6.22671 74.5086 6.0039C75.1536 5.49967 75.8396 5.24755 76.5666 5.24755C77.6923 5.24755 78.648 5.69316 79.4337 6.58436C80.2194 7.46384 80.6122 8.63061 80.6122 10.0847C80.6122 11.5388 80.2194 12.7114 79.4337 13.6026C78.648 14.4821 77.6923 14.9218 76.5666 14.9218C75.8278 14.9218 75.1418 14.6756 74.5086 14.1831C74.2272 13.9603 74.0044 13.7081 73.8402 13.4267H73.6643V18H70.6741ZM74.192 8.39609C73.8402 8.79478 73.6643 9.35765 73.6643 10.0847C73.6643 10.8117 73.8402 11.3746 74.192 11.7733C74.5438 12.172 75.0129 12.3713 75.5992 12.3713C76.1855 12.3713 76.6546 12.172 77.0063 11.7733C77.3581 11.3746 77.534 10.8117 77.534 10.0847C77.534 9.35765 77.3581 8.79478 77.0063 8.39609C76.6546 7.99739 76.1855 7.79804 75.5992 7.79804C75.0129 7.79804 74.5438 7.99739 74.192 8.39609Z" fill="white"/>
<path d="M82.8378 13.6026C82.0522 12.7114 81.6593 11.5388 81.6593 10.0847C81.6593 8.63061 82.0522 7.46384 82.8378 6.58436C83.6235 5.69316 84.5792 5.24755 85.7049 5.24755C86.432 5.24755 87.118 5.49967 87.7629 6.0039C88.0326 6.22671 88.2554 6.47296 88.4313 6.74267H88.6072V5.5114H91.5974V14.658H88.6072V13.4267H88.4313C88.2671 13.7081 88.0443 13.9603 87.7629 14.1831C87.1297 14.6756 86.4437 14.9218 85.7049 14.9218C84.5792 14.9218 83.6235 14.4821 82.8378 13.6026ZM85.2652 8.39609C84.9134 8.79478 84.7375 9.35765 84.7375 10.0847C84.7375 10.8117 84.9134 11.3746 85.2652 11.7733C85.617 12.172 86.086 12.3713 86.6724 12.3713C87.2587 12.3713 87.7277 12.172 88.0795 11.7733C88.4313 11.3746 88.6072 10.8117 88.6072 10.0847C88.6072 9.35765 88.4313 8.79478 88.0795 8.39609C87.7277 7.99739 87.2587 7.79804 86.6724 7.79804C86.086 7.79804 85.617 7.99739 85.2652 8.39609Z" fill="white"/>
<path d="M92.8205 11.6677H95.8107C95.8576 11.8436 95.9573 12.0078 96.1097 12.1603C96.4263 12.4769 96.8837 12.6352 97.4817 12.6352C98.3026 12.6352 98.713 12.43 98.713 12.0195C98.713 11.8319 98.5957 11.6853 98.3612 11.5798C98.1267 11.4625 97.7749 11.3453 97.3058 11.228C96.9188 11.1342 96.6667 11.0756 96.5495 11.0521C96.4322 11.0287 96.1859 10.9642 95.8107 10.8586C95.4354 10.7414 95.1657 10.6417 95.0016 10.5596C94.8491 10.4658 94.6322 10.3368 94.3508 10.1726C94.0811 9.99674 93.8817 9.82084 93.7527 9.64495C93.6355 9.45732 93.5241 9.22866 93.4185 8.95895C93.313 8.67752 93.2602 8.3785 93.2602 8.06189C93.2602 7.28794 93.6061 6.6254 94.298 6.07426C94.9899 5.52312 95.9631 5.24755 97.2179 5.24755C98.7892 5.24755 100.032 5.76351 100.947 6.79543C101.31 7.24104 101.562 7.75114 101.703 8.32573H98.8009C98.7306 8.13811 98.6485 7.99153 98.5547 7.88599C98.285 7.59283 97.898 7.44625 97.3938 7.44625C96.6902 7.44625 96.3384 7.65146 96.3384 8.06189C96.3384 8.26123 96.4556 8.41368 96.6902 8.51921C96.9247 8.62475 97.2824 8.72443 97.7631 8.81824C98.971 9.09967 99.7859 9.34592 100.208 9.557C101.263 10.073 101.791 10.8645 101.791 11.9316C101.791 12.7759 101.416 13.4853 100.665 14.0599C99.9267 14.6345 98.8654 14.9218 97.4817 14.9218C95.7814 14.9218 94.4856 14.3824 93.5944 13.3036C93.1957 12.8228 92.9377 12.2775 92.8205 11.6677Z" fill="white"/>
<path d="M102.577 11.6677H105.567C105.614 11.8436 105.714 12.0078 105.866 12.1603C106.183 12.4769 106.64 12.6352 107.238 12.6352C108.059 12.6352 108.47 12.43 108.47 12.0195C108.47 11.8319 108.352 11.6853 108.118 11.5798C107.883 11.4625 107.532 11.3453 107.063 11.228C106.676 11.1342 106.423 11.0756 106.306 11.0521C106.189 11.0287 105.943 10.9642 105.567 10.8586C105.192 10.7414 104.922 10.6417 104.758 10.5596C104.606 10.4658 104.389 10.3368 104.107 10.1726C103.838 9.99674 103.638 9.82084 103.509 9.64495C103.392 9.45732 103.281 9.22866 103.175 8.95895C103.07 8.67752 103.017 8.3785 103.017 8.06189C103.017 7.28794 103.363 6.6254 104.055 6.07426C104.747 5.52312 105.72 5.24755 106.975 5.24755C108.546 5.24755 109.789 5.76351 110.704 6.79543C111.067 7.24104 111.319 7.75114 111.46 8.32573H108.558C108.487 8.13811 108.405 7.99153 108.311 7.88599C108.042 7.59283 107.655 7.44625 107.15 7.44625C106.447 7.44625 106.095 7.65146 106.095 8.06189C106.095 8.26123 106.212 8.41368 106.447 8.51921C106.681 8.62475 107.039 8.72443 107.52 8.81824C108.728 9.09967 109.543 9.34592 109.965 9.557C111.02 10.073 111.548 10.8645 111.548 11.9316C111.548 12.7759 111.173 13.4853 110.422 14.0599C109.683 14.6345 108.622 14.9218 107.238 14.9218C105.538 14.9218 104.242 14.3824 103.351 13.3036C102.952 12.8228 102.694 12.2775 102.577 11.6677Z" fill="white"/>
<path fill-rule="evenodd" clip-rule="evenodd" d="M3.51792 3.51792V14.0717H14.0717L3.51792 3.51792ZM0 0V17.5896H17.5896V0H0Z" fill="#FF6E30"/>
</svg>
