<?xml version="1.0" encoding="utf-8"?><svg xmlns="http://www.w3.org/2000/svg" xmlns:xlink="http://www.w3.org/1999/xlink"><symbol fill="none" viewBox="0 0 112 18" id="Logo" xmlns="http://www.w3.org/2000/svg"><path d="M25.212 14.658V2.345h3.254V6.92h4.75V2.345h3.253v12.313h-3.254v-4.75h-4.749v4.75h-3.254zM38.396 3.049c0-.422.158-.774.475-1.056.316-.293.715-.44 1.196-.44.48 0 .88.147 1.196.44.317.282.475.634.475 1.056 0 .41-.158.762-.475 1.055-.317.293-.715.44-1.196.44-.48 0-.88-.147-1.196-.44a1.388 1.388 0 01-.475-1.055zm.176 11.609V5.511h2.99v9.147h-2.99zm5.668-1.39c-.785-.867-1.178-1.987-1.178-3.36 0-1.371.393-2.491 1.178-3.359.786-.868 1.742-1.301 2.867-1.301.81 0 1.507.234 2.094.703.27.211.48.446.633.704h.176V5.51H53V18h-8.707v-2.375h5.717v-2.374h-.176c-.164.258-.375.48-.633.668-.575.434-1.273.651-2.093.651-1.126 0-2.082-.434-2.868-1.302zm2.428-4.907c-.352.375-.528.891-.528 1.548 0 .656.176 1.172.528 1.548.352.375.82.563 1.407.563.586 0 1.055-.188 1.407-.563.352-.376.528-.892.528-1.548 0-.657-.176-1.173-.528-1.548-.352-.375-.82-.563-1.407-.563-.586 0-1.055.188-1.407.563zm8.082 6.297V2.345h2.99v4.398h.177a2.72 2.72 0 01.633-.74 3.148 3.148 0 012.093-.755c1.08 0 1.917.328 2.515.985.61.645.915 1.577.915 2.796v5.629h-2.99V9.469c0-.528-.14-.938-.422-1.231-.282-.293-.669-.44-1.161-.44a1.64 1.64 0 00-1.267.563c-.328.363-.492.85-.492 1.46v4.837h-2.99zM70.674 18V5.511h2.99v1.232h.176c.164-.27.387-.516.669-.74.645-.503 1.33-.755 2.058-.755 1.125 0 2.081.445 2.867 1.336.785.88 1.178 2.047 1.178 3.5 0 1.455-.393 2.627-1.178 3.519-.786.88-1.742 1.319-2.867 1.319-.74 0-1.425-.246-2.058-.739a2.704 2.704 0 01-.669-.756h-.176V18h-2.99zm3.518-9.604c-.352.399-.528.962-.528 1.689 0 .727.176 1.29.528 1.688.352.399.82.598 1.407.598.587 0 1.056-.199 1.407-.598.352-.398.528-.961.528-1.688s-.176-1.29-.528-1.689c-.351-.399-.82-.598-1.407-.598-.586 0-1.055.2-1.407.598zm8.646 5.207c-.786-.892-1.179-2.064-1.179-3.518 0-1.454.393-2.621 1.179-3.5.786-.892 1.741-1.337 2.867-1.337.727 0 1.413.252 2.058.756.27.223.492.469.668.739h.176V5.51h2.99v9.147h-2.99v-1.231h-.176a2.704 2.704 0 01-.668.756c-.633.493-1.32.739-2.058.739-1.126 0-2.081-.44-2.867-1.32zm2.427-5.207c-.352.399-.528.962-.528 1.689 0 .727.176 1.29.528 1.688.352.399.821.598 1.407.598.587 0 1.056-.199 1.407-.598.352-.398.528-.961.528-1.688s-.176-1.29-.528-1.689c-.351-.399-.82-.598-1.407-.598-.586 0-1.055.2-1.407.598zm7.555 3.272h2.99a1.1 1.1 0 00.3.492c.316.317.774.475 1.372.475.82 0 1.231-.205 1.231-.615 0-.188-.117-.335-.352-.44-.234-.117-.586-.235-1.055-.352a25.35 25.35 0 00-.757-.176 12.752 12.752 0 01-.738-.193 5.959 5.959 0 01-.81-.3 34.82 34.82 0 00-.65-.386c-.27-.176-.47-.352-.598-.528a4.175 4.175 0 01-.335-.686 2.534 2.534 0 01-.158-.897c0-.774.346-1.437 1.038-1.988.692-.55 1.665-.826 2.92-.826 1.571 0 2.814.516 3.729 1.547.363.446.615.956.756 1.53h-2.902a1.397 1.397 0 00-.246-.439c-.27-.293-.657-.44-1.161-.44-.704 0-1.056.205-1.056.616 0 .2.118.352.352.457.235.106.592.205 1.073.3 1.208.28 2.023.527 2.445.738 1.055.516 1.583 1.307 1.583 2.375 0 .844-.375 1.553-1.126 2.128-.738.574-1.8.862-3.183.862-1.7 0-2.996-.54-3.888-1.618a3.584 3.584 0 01-.773-1.636zm9.757 0h2.99c.047.176.147.34.299.492.317.317.774.475 1.372.475.821 0 1.232-.205 1.232-.615 0-.188-.118-.335-.352-.44-.235-.117-.586-.235-1.055-.352-.387-.094-.64-.152-.757-.176a12.99 12.99 0 01-.739-.193 5.967 5.967 0 01-.809-.3 31.633 31.633 0 00-.651-.386c-.269-.176-.469-.352-.598-.528a4.224 4.224 0 01-.334-.686 2.545 2.545 0 01-.158-.897c0-.774.346-1.437 1.038-1.988.692-.55 1.665-.826 2.92-.826 1.571 0 2.814.516 3.729 1.547.363.446.615.956.756 1.53h-2.902a1.408 1.408 0 00-.247-.439c-.269-.293-.656-.44-1.161-.44-.703 0-1.055.205-1.055.616 0 .2.117.352.352.457.234.106.592.205 1.073.3 1.208.28 2.023.527 2.445.738 1.055.516 1.583 1.307 1.583 2.375 0 .844-.375 1.553-1.126 2.128-.739.574-1.8.862-3.184.862-1.7 0-2.996-.54-3.887-1.618a3.579 3.579 0 01-.774-1.636z" fill="#fff"/><path fill-rule="evenodd" clip-rule="evenodd" d="M3.518 3.518v10.554h10.554L3.518 3.518zM0 0v17.59h17.59V0H0z" fill="#FF6E30"/></symbol><symbol fill="none" viewBox="0 0 12 14" id="calendar" xmlns="http://www.w3.org/2000/svg"><path d="M10.666 1.75h-.583V.583H8.916V1.75H3.083V.583H1.916V1.75h-.583A1.17 1.17 0 00.167 2.917v9.333a1.17 1.17 0 001.166 1.167h9.334a1.17 1.17 0 001.166-1.167V2.917a1.17 1.17 0 00-1.167-1.167zm0 10.5H1.333V4.667h9.333v7.583z" fill="#999"/></symbol><symbol fill="none" viewBox="0 0 12 14" id="calendar-white" xmlns="http://www.w3.org/2000/svg"><path d="M10.666 1.75h-.583V.583H8.916V1.75H3.083V.583H1.916V1.75h-.583A1.17 1.17 0 00.167 2.917v9.333a1.17 1.17 0 001.166 1.167h9.334a1.17 1.17 0 001.166-1.167V2.917a1.17 1.17 0 00-1.167-1.167zm0 10.5H1.333V4.667h9.333v7.583z" fill="#fff"/></symbol><symbol fill="none" viewBox="0 0 31 30" id="fb" xmlns="http://www.w3.org/2000/svg"><path d="M15.91.06C7.678.06.94 6.81.94 15.12c0 7.515 5.48 13.753 12.635 14.88V19.48H9.773v-4.36h3.802V11.8c0-3.773 2.23-5.847 5.659-5.847 1.632 0 3.338.285 3.338.285V9.95h-1.886c-1.856 0-2.44 1.157-2.44 2.345v2.825h4.162l-.674 4.36h-3.488V30a14.955 14.955 0 009.057-5.095 15.066 15.066 0 003.578-9.785C30.88 6.81 24.144.06 15.91.06z" fill="#CACACA"/></symbol><symbol viewBox="0 0 30 30" id="hands" xmlns="http://www.w3.org/2000/svg"><path fill="#EE3E0E" d="M14.392 22.04c-.116.087-.237.168-.349.261-.258.219-.522.43-.763.667-.777.763-1.721.095-1.824-.647-.045-.317.038-.653.061-.969-.426.258-.945.412-1.449.059-.494-.35-.58-.865-.428-1.439-.166.092-.311.186-.466.256-.727.322-1.484-.16-1.538-.958-.06-.884.348-1.301 1.142-1.686.506-.245 1.301.277 1.419.898.048.25.008.517.008.776.164-.151.344-.325.531-.489.278-.244.558-.49.845-.724.266-.217.583-.304.922-.294.793.021 1.259.73.972 1.475-.044.112-.102.219-.118.359.111-.1.224-.197.334-.297.439-.4.962-.455 1.396-.148.476.336.679.953.455 1.461-.088.199-.236.373-.356.56-.054.082-.106.164-.16.243l-.634.636m.068-2.694c-.142.075-.295.135-.421.231-.182.141-.347.305-.514.464-.471.449-.955.886-1.404 1.357-.374.393-.357.916-.011 1.266.242.242.521.275.769.059a53.08 53.08 0 001.629-1.479c.224-.216.424-.464.59-.726.327-.52-.204-1.154-.638-1.172m-4.322.968c.124.252.206.506.357.709.201.27.479.271.726.045.339-.313.682-.623 1.003-.954.206-.21.403-.438.561-.688.253-.4.166-.892-.168-1.162-.208-.17-.43-.199-.604-.039-.522.479-1.043.957-1.538 1.465-.151.152-.216.391-.337.624m-2.059-1.16c0-.01-.004.049.001.104.043.495.495.763.941.556.345-.16.586-.422.726-.771.131-.331.029-.661-.259-.875-.364-.27-.483-.27-.853.005l-.18.13c-.263.195-.4.452-.376.851"/><path fill="#EE3E0E" d="M14.393 22.04l.632-.636c.473-.428.981-.353 1.325-.084.479.375.641.938.402 1.477-.294.667-.792 1.17-1.359 1.605-.27.205-.594.181-.899.074-.694-.24-.996-1.146-.588-1.756.155-.231.324-.452.487-.68m.472 2.085c.11-.044.252-.059.326-.137.36-.381.713-.771 1.045-1.174a.902.902 0 00.168-.455c.037-.342-.159-.575-.432-.745a.42.42 0 00-.564.073c-.395.429-.798.854-1.143 1.321-.305.419.068 1.066.6 1.117"/><path fill="#EE3E0E" d="M22.993 19.261c.177.423-.013.968-.425 1.277-.313.231-.68.325-1.049.297-.281-.021-.435.089-.564.298-.148.238-.285.483-.449.709-.326.453-.666.561-1.208.411-.418-.116-.446-.101-.579.313-.303.942-.883 1.271-1.859 1.052.078-.396.207-.521.59-.511.268.006.455-.107.607-.313a1.184 1.184 0 00-.033-1.467c-.486-.604-.979-1.2-1.474-1.797-.169-.205-.211-.436-.175-.7.232-.028.38.092.512.246.545.649 1.09 1.302 1.643 1.946.16.188.324.377.519.526.444.345.949.24 1.252-.233.291-.452.265-.935-.116-1.418-.373-.474-.77-.926-1.158-1.385-.183-.214-.383-.412-.553-.635a1.09 1.09 0 01-.174-.418c-.016-.076.047-.229.098-.24a.392.392 0 01.289.076c.102.079.162.205.25.305.604.707 1.205 1.42 1.826 2.115.165.188.381.34.596.473.352.219.648.166.931-.139.155-.17.289-.359.44-.533.075-.088.168-.164.263-.255"/><path fill="none" stroke="#EE3E0E" stroke-width=".25" stroke-miterlimit="10" d="M22.993 19.261c.177.423-.013.968-.425 1.277-.313.231-.68.325-1.049.297-.281-.021-.435.089-.564.298-.148.238-.285.483-.449.709-.326.453-.666.561-1.208.411-.418-.116-.446-.101-.579.313-.303.942-.883 1.271-1.859 1.052.078-.396.207-.521.59-.511.268.006.455-.107.607-.313a1.184 1.184 0 00-.033-1.467c-.486-.604-.979-1.2-1.474-1.797-.169-.205-.211-.436-.175-.7.232-.028.38.092.512.246.545.649 1.09 1.302 1.643 1.946.16.188.324.377.519.526.444.345.949.24 1.252-.233.291-.452.265-.935-.116-1.418-.373-.474-.77-.926-1.158-1.385-.183-.214-.383-.412-.553-.635a1.09 1.09 0 01-.174-.418c-.016-.076.047-.229.098-.24a.392.392 0 01.289.076c.102.079.162.205.25.305.604.707 1.205 1.42 1.826 2.115.165.188.381.34.596.473.352.219.648.166.931-.139.155-.17.289-.359.44-.533.075-.088.168-.164.263-.255z"/><path fill="#EE3E0E" d="M5.9 15.995c-.369.606-.824.462-1.301.212a5.371 5.371 0 00-.675-.303c-.566-.196-.913-.506-.609-1.387.341-.99.715-1.966 1.075-2.947.419-1.144.837-2.287 1.258-3.43.048-.132.098-.266.163-.388.176-.328.47-.472.828-.375.444.121.884.265 1.318.414.252.088.479.229.577.502.002.009.004.02.01.021.468.211.724.738 1.277.832.39.065.739-.021 1.07-.198.442-.237.859-.528 1.314-.735a4.88 4.88 0 011.192-.365c.461-.08.865.11 1.224.434a.53.53 0 01-.565.189c-.67-.154-1.272.024-1.849.346-.389.216-.76.467-1.158.66-.782.381-1.543.347-2.254-.193-.281-.216-.346-.195-.467.142l-1.832 5.139c-.068.193-.131.391-.209.58-.127.314-.049.572.182.811.441.456.876.919 1.311 1.38.202.215.181.285-.067.521-.197.188-.307.054-.418-.088-.372-.473-.739-.947-1.11-1.422-.081-.106-.166-.206-.285-.352m-2.136-.934c.062.066.128.183.226.229.316.158.646.291.969.435.311.139.398.112.568-.188.056-.101.091-.211.127-.32.291-.883.561-1.772.874-2.647.446-1.246.925-2.481 1.386-3.723.135-.363.114-.41-.254-.544-.294-.106-.598-.184-.895-.28-.395-.127-.412-.121-.554.268l-2.347 6.42c-.032.092-.053.187-.1.35"/><path fill="none" stroke="#EE3E0E" stroke-width=".25" stroke-miterlimit="10" d="M5.9 15.995c-.369.606-.824.462-1.301.212a5.371 5.371 0 00-.675-.303c-.566-.196-.913-.506-.609-1.387.341-.99.715-1.966 1.075-2.947.419-1.144.837-2.287 1.258-3.43.048-.132.098-.266.163-.388.176-.328.47-.472.828-.375.444.121.884.265 1.318.414.252.088.479.229.577.502.002.009.004.02.01.021.468.211.724.738 1.277.832.39.065.739-.021 1.07-.198.442-.237.859-.528 1.314-.735a4.88 4.88 0 011.192-.365c.461-.08.865.11 1.224.434a.53.53 0 01-.565.189c-.67-.154-1.272.024-1.849.346-.389.216-.76.467-1.158.66-.782.381-1.543.347-2.254-.193-.281-.216-.346-.195-.467.142l-1.832 5.139c-.068.193-.131.391-.209.58-.127.314-.049.572.182.811.441.456.876.919 1.311 1.38.202.215.181.285-.067.521-.197.188-.307.054-.418-.088-.372-.473-.739-.947-1.11-1.422-.081-.106-.166-.206-.285-.352zm-2.136-.934c.062.066.128.183.226.229.316.158.646.291.969.435.311.139.398.112.568-.188.056-.101.091-.211.127-.32.291-.883.561-1.772.874-2.647.446-1.246.925-2.481 1.386-3.723.135-.363.114-.41-.254-.544-.294-.106-.598-.184-.895-.28-.395-.127-.412-.121-.554.268l-2.347 6.42c-.032.092-.053.187-.1.35z"/><path fill="#EE3E0E" d="M27.713 14.65a2.523 2.523 0 00-.18-.457c-.764-1.543-1.528-3.082-2.29-4.625-.259-.523-.497-1.059-.761-1.58-.229-.457-.682-.67-1.082-.471-.514.256-1.008.557-1.5.854-.189.114-.277.31-.293.544a.495.495 0 01-.151.298c-.293.281-.647.302-.981.113a6.696 6.696 0 01-1.018-.69c-.688-.58-1.417-1.025-2.352-.935-.612-.095-1.129.129-1.626.425-1.77 1.053-3.37 2.336-4.964 3.629-.505.409-.609 1.196-.279 1.76a.962.962 0 00.657.479c.443.094.856-.002 1.24-.215.619-.343 1.227-.707 1.84-1.062.578-.332 1.157-.662 1.735-.996.192-.111.358-.087.506.082.065.073.138.141.202.217.563.668 1.113 1.347 1.688 2.004 1.387 1.591 2.783 3.17 4.178 4.752.222.252.425.248.672-.006.676-.698 1.355-1.393 2.018-2.104.184-.196.342-.344.631-.274.08.021.185-.011.263-.049.495-.236 1.002-.461 1.479-.732.355-.205.48-.552.368-.961m-3.078 1.525c-.478.501-.958.999-1.438 1.497l-.573.594c-.543-.608-1.082-1.199-1.604-1.802-1.32-1.526-2.635-3.058-3.953-4.587-.14-.162-.279-.324-.43-.477-.367-.369-.692-.435-1.164-.209-.326.158-.64.342-.953.522-.861.5-1.718 1.009-2.582 1.507-.14.082-.296.145-.453.188-.262.07-.545.105-.717-.16a.797.797 0 01-.018-.867.824.824 0 01.212-.236c1.437-1.131 2.84-2.309 4.411-3.256.113-.07.227-.137.333-.215.892-.654 2.368-.498 3.101.191.269.254.568.477.873.688.789.553 1.277.588 2.131.17.021.031.045.063.063.1.963 1.966 1.923 3.934 2.891 5.896.098.207-.011.33-.13.456m2.364-1.032c-.412.222-.834.424-1.255.627-.201.099-.327.035-.376-.192-.022-.11-.077-.216-.126-.319-.903-1.892-1.807-3.783-2.713-5.675a4.224 4.224 0 00-.256-.447c-.097-.149-.104-.268.072-.366.379-.213.752-.439 1.135-.646.268-.145.369-.104.506.178.578 1.191 1.148 2.385 1.731 3.574.445.908.905 1.811 1.356 2.715.044.087.07.182.121.313-.057.072-.108.191-.195.238"/><path fill="none" stroke="#EE3E0E" stroke-width=".25" stroke-miterlimit="10" d="M27.713 14.65a2.523 2.523 0 00-.18-.457c-.764-1.543-1.528-3.082-2.29-4.625-.259-.523-.497-1.059-.761-1.58-.229-.457-.682-.67-1.082-.471-.514.256-1.008.557-1.5.854-.189.114-.277.31-.293.544a.495.495 0 01-.151.298c-.293.281-.647.302-.981.113a6.696 6.696 0 01-1.018-.69c-.688-.58-1.417-1.025-2.352-.935-.612-.095-1.129.129-1.626.425-1.77 1.053-3.37 2.336-4.964 3.629-.505.409-.609 1.196-.279 1.76a.962.962 0 00.657.479c.443.094.856-.002 1.24-.215.619-.343 1.227-.707 1.84-1.062.578-.332 1.157-.662 1.735-.996.192-.111.358-.087.506.082.065.073.138.141.202.217.563.668 1.113 1.347 1.688 2.004 1.387 1.591 2.783 3.17 4.178 4.752.222.252.425.248.672-.006.676-.698 1.355-1.393 2.018-2.104.184-.196.342-.344.631-.274.08.021.185-.011.263-.049.495-.236 1.002-.461 1.479-.732.355-.205.48-.552.368-.961zm-3.078 1.525c-.478.501-.958.999-1.438 1.497l-.573.594c-.543-.608-1.082-1.199-1.604-1.802-1.32-1.526-2.635-3.058-3.953-4.587-.14-.162-.279-.324-.43-.477-.367-.369-.692-.435-1.164-.209-.326.158-.64.342-.953.522-.861.5-1.718 1.009-2.582 1.507-.14.082-.296.145-.453.188-.262.07-.545.105-.717-.16a.797.797 0 01-.018-.867.824.824 0 01.212-.236c1.437-1.131 2.84-2.309 4.411-3.256.113-.07.227-.137.333-.215.892-.654 2.368-.498 3.101.191.269.254.568.477.873.688.789.553 1.277.588 2.131.17.021.031.045.063.063.1.963 1.966 1.923 3.934 2.891 5.896.098.207-.011.33-.13.456zm2.364-1.032c-.412.222-.834.424-1.255.627-.201.099-.327.035-.376-.192-.022-.11-.077-.216-.126-.319-.903-1.892-1.807-3.783-2.713-5.675a4.224 4.224 0 00-.256-.447c-.097-.149-.104-.268.072-.366.379-.213.752-.439 1.135-.646.268-.145.369-.104.506.178.578 1.191 1.148 2.385 1.731 3.574.445.908.905 1.811 1.356 2.715.044.087.07.182.121.313-.057.072-.108.191-.195.238z"/><path fill="#FFF" d="M14.46 19.346c.434.021.965.652.638 1.172-.165.262-.366.51-.59.726-.53.507-1.078.996-1.629 1.479-.248.217-.526.185-.769-.059-.347-.35-.363-.873.011-1.266.449-.473.934-.908 1.403-1.357.168-.159.332-.323.515-.464.127-.097.279-.156.421-.231"/><path fill="none" stroke="#EE3E0E" stroke-width=".5" stroke-miterlimit="10" d="M14.46 19.346c.434.021.965.652.638 1.172-.165.262-.366.51-.59.726-.53.507-1.078.996-1.629 1.479-.248.217-.526.185-.769-.059-.347-.35-.363-.873.011-1.266.449-.473.934-.908 1.403-1.357.168-.159.332-.323.515-.464.127-.097.279-.156.421-.231z"/><path fill="#FFF" d="M10.138 20.313c.121-.23.186-.471.336-.625a40.906 40.906 0 011.538-1.463c.175-.16.397-.129.604.039.334.271.42.76.168 1.163a4.283 4.283 0 01-.561.688c-.321.329-.663.642-1.003.952-.246.229-.524.227-.726-.043-.15-.204-.232-.46-.356-.711"/><path fill="none" stroke="#EE3E0E" stroke-width=".5" stroke-miterlimit="10" d="M10.138 20.313c.121-.23.186-.471.336-.625a40.906 40.906 0 011.538-1.463c.175-.16.397-.129.604.039.334.271.42.76.168 1.163a4.283 4.283 0 01-.561.688c-.321.329-.663.642-1.003.952-.246.229-.524.227-.726-.043-.15-.204-.232-.46-.356-.711z"/><path fill="#FFF" d="M8.079 19.154c-.023-.399.113-.656.377-.853l.18-.13c.369-.273.488-.273.853-.005.288.214.39.544.259.875a1.39 1.39 0 01-.726.771c-.446.207-.898-.06-.941-.555-.006-.054-.002-.112-.002-.103"/><path fill="none" stroke="#EE3E0E" stroke-width=".5" stroke-miterlimit="10" d="M8.079 19.154c-.023-.399.113-.656.377-.853l.18-.13c.369-.273.488-.273.853-.005.288.214.39.544.259.875a1.39 1.39 0 01-.726.771c-.446.207-.898-.06-.941-.555-.006-.054-.002-.112-.002-.103z"/><path fill="#FFF" d="M14.865 24.125c-.531-.051-.904-.698-.6-1.115.345-.468.748-.894 1.143-1.322a.42.42 0 01.564-.072c.272.17.469.402.432.744a.902.902 0 01-.168.455c-.333.404-.686.795-1.045 1.174-.074.077-.216.092-.326.136"/><path fill="none" stroke="#EE3E0E" stroke-width=".5" stroke-miterlimit="10" d="M14.865 24.125c-.531-.051-.904-.698-.6-1.115.345-.468.748-.894 1.143-1.322a.42.42 0 01.564-.072c.272.17.469.402.432.744a.902.902 0 01-.168.455c-.333.404-.686.795-1.045 1.174-.074.077-.216.092-.326.136z"/></symbol><symbol viewBox="0 0 30 30" id="hello" xmlns="http://www.w3.org/2000/svg"><path fill="#EE3E0E" d="M27.787 15.39c-.441.08-.887.158-1.327.242-1.073.199-2.149.402-3.222.604-.014.002-.025 0-.059.003l-.238-1.255 4.606-.863.213 1.122c.005.023.017.046.025.07l.002.077zm-6.699-2.722l-.77-1.024c1.826-1.373 3.646-2.739 5.475-4.11l.771 1.024c-1.826 1.369-3.645 2.735-5.476 4.11M18.234 9.27l-1.185-.5c.646-1.522 1.283-3.034 1.929-4.562.395.166.78.33 1.182.498-.64 1.522-1.279 3.035-1.926 4.564M23.9 20.111c-.043-.385-.219-.709-.448-1.01L15.13 8.208c-.362-.473-.71-.961-1.098-1.412-.457-.531-1.044-.74-1.736-.531-.474.142-.789.48-1.037.894-2.739 4.567-5.477 9.135-8.22 13.699-.261.437-.439.892-.479 1.398-.06.781.092 1.512.56 2.155.226.313.452.626.694.926.733.901 1.694 1.278 2.836 1.151.392-.043.771-.191 1.156-.295.221-.061.439-.127.664-.191.135.258.256.51.396.75.099.17.2.346.339.482.713.699 1.581.924 2.536.699 1.79-.42 3.569-.877 5.354-1.32.482-.121.889-.37 1.16-.795.387-.604.374-1.231.07-1.862-.113-.235-.247-.461-.379-.703l.146-.046 4.223-1.225c.301-.088.604-.168.865-.353.531-.367.791-.865.72-1.518m-7.061 5.243c-.217.065-.438.114-.659.168-1.556.388-3.111.772-4.666 1.158a1.583 1.583 0 01-.912-.037c-.278-.095-.504-.252-.629-.531-.07-.154-.158-.305-.244-.473.418-.123.82-.24 1.224-.356 1.868-.542 3.735-1.082 5.604-1.63.105-.029.148-.008.196.088.12.236.252.468.379.699.022.043.046.084.065.127.16.363.024.673-.358.787m5.617-4.781c-.093.052-.194.09-.296.118-1.977.576-3.95 1.148-5.926 1.723L6.73 25.173c-.679.196-1.487-.075-1.912-.637l-.595-.793a2.347 2.347 0 01-.142-.209c-.18-.298-.252-.589-.252-.976a1.768 1.768 0 01.266-.965c2.748-4.576 5.494-9.154 8.241-13.732.048-.082.097-.163.157-.234.16-.189.341-.203.523-.036.064.06.123.132.178.202 2.734 3.58 5.47 7.16 8.203 10.74.348.452.694.905 1.039 1.36.06.078.114.162.153.25.087.189.043.33-.133.43"/></symbol><symbol fill="none" viewBox="0 0 30 30" id="instagram" xmlns="http://www.w3.org/2000/svg"><g clip-path="url(#gclip0)" fill="#CACACA"><path d="M12.105 14.97a2.865 2.865 0 105.73.001 2.865 2.865 0 00-5.73 0z"/><path d="M8.27 9.9c.137-.372.357-.71.642-.988.277-.285.615-.505.989-.643.302-.117.757-.257 1.595-.295.907-.042 1.179-.05 3.474-.05 2.296 0 2.568.008 3.474.05.838.038 1.293.178 1.596.295.373.138.711.358.988.643.286.278.506.615.644.989.117.303.257.758.295 1.596.042.906.05 1.178.05 3.474 0 2.295-.008 2.567-.05 3.473-.038.838-.178 1.294-.295 1.596a2.665 2.665 0 01-.643.989 2.661 2.661 0 01-.989.643c-.303.118-.758.258-1.596.296-.906.041-1.178.05-3.474.05-2.295 0-2.567-.009-3.473-.05-.838-.038-1.294-.178-1.596-.296a2.847 2.847 0 01-1.632-1.632c-.118-.302-.258-.758-.296-1.596-.041-.906-.05-1.178-.05-3.473 0-2.296.009-2.568.05-3.474.038-.838.178-1.293.296-1.596zm6.7 9.485a4.414 4.414 0 100-8.829 4.414 4.414 0 000 8.829zm-4.588-7.972a1.032 1.032 0 100-2.063 1.032 1.032 0 000 2.064z"/><path d="M14.97 0c8.267 0 14.97 6.704 14.97 14.97 0 8.267-6.703 14.97-14.97 14.97C6.704 29.94 0 23.238 0 14.97 0 6.705 6.704 0 14.97 0zM6.426 18.515c.042.915.187 1.54.4 2.086a4.395 4.395 0 002.514 2.514c.546.213 1.171.358 2.086.4.917.042 1.21.052 3.544.052 2.335 0 2.627-.01 3.544-.052.915-.042 1.54-.187 2.087-.4a4.21 4.21 0 001.523-.991c.437-.43.775-.95.99-1.523.213-.546.359-1.171.4-2.086.043-.917.052-1.21.052-3.544 0-2.335-.01-2.628-.051-3.544-.042-.915-.187-1.54-.4-2.087a4.212 4.212 0 00-.991-1.523 4.21 4.21 0 00-1.523-.991c-.547-.213-1.172-.358-2.087-.4-.916-.041-1.21-.052-3.544-.052s-2.627.01-3.544.053c-.915.041-1.54.186-2.086.399a4.214 4.214 0 00-1.523.991c-.437.43-.776.95-.991 1.523-.213.547-.358 1.171-.4 2.087-.042.916-.052 1.21-.052 3.544s.01 2.627.052 3.544z"/></g><defs><clipPath id="gclip0"><path fill="#fff" transform="matrix(-1 0 0 1 29.94 0)" d="M0 0h29.94v29.94H0z"/></clipPath></defs></symbol><symbol fill="none" viewBox="0 0 20 20" id="loop" xmlns="http://www.w3.org/2000/svg"><path d="M19.929 18.25l-4.046-3.564a9.222 9.222 0 001.834-5.56c0-2.44-.925-4.728-2.596-6.452C13.45.949 11.223 0 8.858 0 6.493 0 4.267.952 2.595 2.674.921 4.395 0 6.686 0 9.125c0 2.437.924 4.73 2.595 6.452 1.672 1.725 3.895 2.674 6.263 2.674a8.621 8.621 0 005.395-1.886l4.046 3.562a.24.24 0 00.171.073.237.237 0 00.172-.073l1.287-1.323a.252.252 0 00.053-.272.25.25 0 00-.053-.081zm-6.394-4.306c-1.252 1.286-2.911 1.995-4.677 1.995-1.765 0-3.425-.709-4.677-1.995a6.882 6.882 0 01-1.937-4.819c0-1.819.688-3.531 1.937-4.818 1.252-1.286 2.912-1.995 4.677-1.995 1.766 0 3.428.705 4.677 1.995a6.882 6.882 0 011.937 4.818 6.877 6.877 0 01-1.937 4.819z" fill="#fff"/></symbol><symbol fill="none" viewBox="0 0 12 12" id="map" xmlns="http://www.w3.org/2000/svg"><circle cx="6" cy="6" r="6" fill="#FF6E30"/></symbol><symbol fill="none" viewBox="0 0 20 18" id="more" xmlns="http://www.w3.org/2000/svg"><path fill="#fff" d="M0 0h20v2H0zm0 8h20v2H0zm0 8h10v2H0z"/></symbol><symbol fill="none" viewBox="0 0 31 30" id="vk" xmlns="http://www.w3.org/2000/svg"><path d="M15.85 0C7.584 0 .88 6.702.88 14.97s6.703 14.97 14.97 14.97c8.268 0 14.97-6.702 14.97-14.97S24.119 0 15.85 0zm7.594 16.59c.698.68 1.436 1.322 2.062 2.074.278.333.54.677.738 1.063.285.552.028 1.157-.466 1.19h-3.067c-.792.065-1.422-.255-1.953-.796-.425-.432-.818-.893-1.227-1.34a2.867 2.867 0 00-.552-.49c-.418-.272-.781-.19-1.02.248-.245.444-.3.937-.324 1.431-.034.724-.252.913-.977.947-1.55.072-3.022-.163-4.389-.945-1.206-.69-2.14-1.662-2.953-2.764-1.584-2.148-2.798-4.505-3.888-6.93-.245-.546-.066-.838.537-.85a85.326 85.326 0 013.003 0c.407.006.677.239.833.623.541 1.331 1.204 2.597 2.035 3.772.222.312.448.624.77.845.355.244.626.163.793-.233a2.57 2.57 0 00.177-.792c.08-.925.09-1.85-.049-2.772-.085-.577-.41-.95-.985-1.058-.293-.056-.25-.164-.107-.331.247-.29.478-.468.941-.468l3.465-.001c.546.107.669.352.743.902l.003 3.851c-.006.213.107.844.49.983.306.101.508-.144.69-.338.832-.882 1.424-1.923 1.954-3 .234-.475.436-.967.632-1.46.146-.363.372-.543.784-.536l3.336.004c.099 0 .199 0 .296.017.562.096.716.338.542.887-.273.862-.806 1.58-1.326 2.3-.557.77-1.152 1.514-1.703 2.288-.508.707-.468 1.064.162 1.678z" fill="#CACACA"/></symbol><symbol fill="none" viewBox="0 0 20 20" id="х" xmlns="http://www.w3.org/2000/svg"><circle cx="10" cy="10" r="10" fill="#666"/><path fill="#fff" d="M6.207 5.5l8.485 8.485-.707.707L5.5 6.207z"/><path fill="#fff" d="M5.59 13.985L14.077 5.5l.707.707-8.485 8.485z"/></symbol></svg>